<svg fill="none" xmlns="http://www.w3.org/2000/svg" viewBox="0 0 106 28">
  <path fill-rule="evenodd" clip-rule="evenodd" d="M105.625 14.99c-.42.8075-1.453 1.9562-3.382 1.9562-2.043 0-3.0877-1.3648-3.0877-4.083 0-1.035.1476-3.98073.1476-5.10667 0-.4322-.1022-.63687-.4427-.68242-.8286-.10234-1.3167-.1592-1.3167-.60279 0-.34118.1248-.63688.5108-.81885.6811-.30709 1.3734-.69374 1.8729-1.23967.8628-.96674.9308-2.19501 1.5778-2.19501.363 0 .602.30709.602.8871 0 .44359-.114 2.2064-.114 2.28604 0 .05686.011.09095.102.09095.193 0 2.418-.11372 2.679-.11372.443 0 .726.12511.726.65965 0 .38673-.215.8871-.408 1.09185-.068.06825-.204.1365-.386.1365-.238 0-2.225-.11372-2.52-.11372-.068 0-.17.02277-.182.19336-.034.40943-.102 3.6281-.102 4.7881 0 1.2853.273 2.65 1.68 2.65.715 0 1.26-.4549 1.578-.7847.17-.182.261-.273.409-.273.136 0 .306.1024.306.4663 0 .2161-.079.5118-.25.8076V14.99ZM95.4203 9.43987c-.6584 0-.6357-.40943-.7833-1.11463-.1362-.69374-.454-1.11455-.9421-1.11455-1.0783 0-2.0431 1.39894-2.0431 2.54765v4.13986c0 .7848.2156 1.126.8399 1.5127.3519.2388.9762.3298.9762.7961 0 .3298-.1816.5687-.7945.5687-.613 0-1.3621-.0568-2.3269-.0568-.7038 0-.9989.0568-1.9411.0568-.5448 0-.7037-.2502-.7037-.5345 0-.4322.3972-.6256.613-.8075.5562-.5005.6469-.9895.6469-1.5696V8.18874c0-.5914-.3746-.81885-.7718-.96674-.2384-.11373-.4427-.26162-.4427-.53454 0-.50045.5902-.5914 1.328-.90988.9421-.40942 1.3054-.65965 1.68-.65965.3518 0 .5562.14781.6697.63687.1135.53454.1589 1.11455.3518 1.11455.2384 0 1.4302-1.85384 3.3485-1.85384 1.033 0 2.0546.61418 2.0546 2.22918 0 1.11455-.7719 2.19502-1.7594 2.19502v.00016ZM84.6136 16.8894c-.9649 0-1.6005-.364-1.9411-1.1942-.0453-.1023-.1135-.1934-.1929-.1934-.0795 0-.1703.1365-.2611.2275-.7379.7165-1.9637 1.2624-3.2578 1.2624-1.9183 0-3.4166-1.0122-3.4166-2.8319 0-1.8198 1.294-2.9457 3.3031-3.5485 1.4756-.4208 3.2578-.4891 3.5301-.68245.1249-.09095.2384-.27292.2384-.98952 0-1.46711-.613-2.64999-2.1113-2.64999-1.2145 0-1.782.93258-2.0318 1.97895-.1362.55732-.3632.92127-.9875.92127-.6244 0-1.3394-.4549-1.3394-1.4558 0-1.30792 1.6118-2.72955 4.3928-2.72955 2.9285 0 4.8241 1.62639 4.8241 4.57208 0 1.47851-.1249 3.23001-.1249 4.26501 0 .5004.1589.9781.6584.9781.2724 0 .3859-.0909.5562-.0909.0908 0 .2043.1251.2043.3867 0 .9781-.9081 1.7742-2.0432 1.7742h.0002Zm-2.2021-5.5047c-.9421 0-1.7026.091-2.3496.2957-1.2032.3981-1.7367 1.1942-1.7367 2.0018 0 .9439.7037 1.4899 1.6799 1.4899 1.5437 0 2.6221-1.1601 2.6221-2.9003 0-.6824-.0682-.8871-.2157-.8871ZM69.5163 16.969c-3.269 0-5.5165-2.4111-5.5165-5.7435 0-3.3323 2.1794-6.20983 5.7775-6.20983 2.3155 0 3.9955 1.28522 3.9955 2.91161 0 1.09185-.8172 1.72873-1.7707 1.72873-.5335 0-.5675-.2957-.7265-.95535-.2497-1.16011-.8399-2.24057-2.0431-2.24057-1.453 0-2.554 1.48989-2.554 3.62811 0 2.4794 1.3735 4.4242 3.7685 4.4242 1.9637 0 2.8037-1.2738 3.2123-1.9335.1021-.1365.2384-.2957.3859-.2957.2611 0 .3291.2957.3291.6483 0 1.6719-1.7367 4.0375-4.8582 4.0375h.0002Zm-10.0008-2.3657c-1.748 4.1058-2.9398 7.006-5.3349 7.006-1.135 0-1.9864-.7393-1.9864-1.8539 0-.9895.6584-1.7401 1.4189-1.7401.3746 0 .6016.2161.7604.4891.2384.4094.4428.7961.8173.7961.4994 0 1.4188-1.251 1.4188-2.013s-2.0659-5.4023-2.6448-6.7899c-.4767-1.1259-1.3394-3.30961-1.975-3.82137-.2838-.26161-.5675-.48906-.5675-.8871 0-.35256.227-.5914.6583-.5914.5675 0 1.0444.05686 1.6459.05686.5448 0 1.2939-.05686 1.8955-.05686.4428 0 .7379.10234.7379.64826 0 .39804-.6697.64826-.6697 1.29653 0 .4322.2156 1.09185 1.0783 3.27548.7605 1.9221 1.2372 3.1731 1.3962 3.1731.2156 0 .7264-1.4102 1.4302-3.5598.6016-1.78562.6924-2.33155.6924-2.66141 0-.90988-.874-1.04638-.874-1.59231 0-.37534.2497-.58001.5788-.58001.4314 0 1.1919.05686 1.5892.05686.454 0 1.0102-.05686 1.3167-.05686.4653 0 .5902.23884.5902.52315 0 .7279-.7265.56862-1.4075 2.29743-.6923 1.69464-1.6458 4.46975-2.5652 6.58515ZM49.3694 25.7719c-.8673.6706-1.9126 1.2096-3.1359 1.617-1.2236.4072-2.5656.6111-4.0265.6111-1.4608 0-2.7959-.2038-4.0264-.6111-1.2307-.4075-2.2777-.9465-3.1414-1.617-.8636-.6706-1.4789-1.3991-1.8459-2.1849-.2159-.5625-.1439-.905.2158-1.0276.1152-.0505.2394-.0415.3725.0271.1333.0684.2789.1747.4372.3191.5038.5046 1.1587.9626 1.9646 1.3736.806.4111 1.7218.7356 2.7473.9735 1.0255.238 2.1175.3569 3.2762.3569 1.7272 0 3.2979-.2506 4.712-.7517 1.4141-.5013 2.5098-1.1519 3.287-1.9523.331-.3174.6008-.4327.8096-.3462.3525.1226.421.4651.2051 1.0276-.367.7858-.9842 1.5142-1.8513 2.1849h.0001Zm-3.714-8.8256c-1.8275 0-2.5085-1.1033-2.7355-1.1033-.1476 0-.2044.182-.2044.6483v2.1268c0 .8757.5221 1.1146.9195 1.3762.3746.216.7946.3753.7946.8075 0 .3298-.1817.5687-.7946.5687-.4881 0-1.4643-.0568-2.0999-.0568-.6924 0-1.3395.0568-2.0659.0568-.5334 0-.7037-.2502-.7037-.5345 0-.4322.3973-.6256.6243-.8076.5449-.5004.6357-.9781.6357-1.5581V8.18874c0-.5914-.3746-.81885-.7719-.96674-.227-.11373-.4313-.26162-.4313-.53454 0-.50045.5902-.5914 1.3167-.90988.9421-.40942 1.3053-.65965 1.6799-.65965.3518 0 .5562.14781.6811.63687.1021.53454.1589 1.11455.3518 1.11455.2384 0 1.226-1.85384 3.5869-1.85384 2.7583 0 4.3701 2.28604 4.3701 5.64119 0 3.719-2.134 6.2894-5.1533 6.2894l-.0001.0002Zm-.3065-10.05401c-1.328 0-2.6674 1.26244-2.6674 4.08301 0 3.3892 1.1918 4.3333 2.5653 4.3333 1.3734 0 2.6674-1.2739 2.6674-4.2309 0-2.95698-1.1124-4.18533-2.5653-4.18533v-.00008ZM32.6012 16.9463c-1.8274 0-2.5085-1.1033-2.7355-1.1033-.1476 0-.2044.182-.2044.6483v2.1268c0 .8757.5221 1.1146.9195 1.3762.3746.216.7946.3753.7946.8075 0 .3298-.1817.5687-.7946.5687-.4881 0-1.4642-.0568-2.0999-.0568-.6924 0-1.3395.0568-2.0659.0568-.5334 0-.7037-.2502-.7037-.5345 0-.4322.3973-.6256.6243-.8076.5449-.5004.6357-.9781.6357-1.5581V8.18874c0-.5914-.3746-.81885-.7719-.96674-.227-.11373-.4313-.26162-.4313-.53454 0-.50045.5902-.5914 1.3167-.90988.9421-.40942 1.3053-.65965 1.6799-.65965.3519 0 .5562.14781.6811.63687.1021.53454.1589 1.11455.3518 1.11455.2384 0 1.226-1.85384 3.5869-1.85384 2.7583 0 4.3701 2.28604 4.3701 5.64119 0 3.719-2.134 6.2894-5.1533 6.2894l-.0001.0002Zm-.3065-10.05401c-1.328 0-2.6674 1.26244-2.6674 4.08301 0 3.3892 1.1918 4.3333 2.5653 4.3333 1.3734 0 2.6674-1.2739 2.6674-4.2309 0-2.95698-1.1124-4.18533-2.5653-4.18533v-.00008Zm-9.3084 9.99711c-.9648 0-1.6004-.364-1.941-1.1942-.0454-.1023-.1135-.1934-.193-.1934-.0794 0-.1702.1365-.2611.2275-.7378.7165-1.9636 1.2624-3.2577 1.2624-1.9183 0-3.4166-1.0122-3.4166-2.8319 0-1.8198 1.294-2.9457 3.3031-3.5485 1.4756-.4208 3.2577-.4891 3.5301-.68245.1249-.09095.2384-.27292.2384-.98952 0-1.46711-.613-2.64999-2.1113-2.64999-1.2146 0-1.7821.93258-2.0318 1.97895-.1362.55732-.3632.92127-.9876.92127-.6243 0-1.3394-.4549-1.3394-1.4558 0-1.30792 1.6118-2.72955 4.3928-2.72955 2.9285 0 4.8241 1.62639 4.8241 4.57208 0 1.47851-.1249 3.23001-.1249 4.26501 0 .5004.1589.9781.6584.9781.2724 0 .3859-.0909.5562-.0909.0908 0 .2043.1251.2043.3867 0 .9781-.908 1.7742-2.0431 1.7742h.0001Zm-2.202-5.5047c-.9421 0-1.7027.091-2.3496.2957-1.2032.3981-1.7367 1.1942-1.7367 2.0018 0 .9439.7037 1.4899 1.6799 1.4899 1.5437 0 2.622-1.1601 2.622-2.9003 0-.6824-.0681-.8871-.2156-.8871Zm-9.0021 5.391c-.5107 0-.8967-.0569-1.5323-.0569-.69243 0-1.0102.0569-1.57778.0569-.44272 0-.59024-.2503-.59024-.5346 0-.3639.19299-.7506.2611-.9667.21564-.671.49947-2.7978.49947-5.027 0-2.22917-.8627-3.30964-2.30426-3.30964-1.23722 0-2.58802 1.21697-2.58802 2.3656v4.69724c0 .7847.13624 1.1032.47674 1.3989.32913.2957.70373.364.70373.8075 0 .3298-.18162.5687-.79458.5687-.61297 0-1.06697-.0568-1.6913-.0568-.70373 0-.99885.0568-1.941027.0568C.158884 16.7757 0 16.5255 0 16.2412c0-.4322.397251-.6256.612965-.8075.556215-.5005.646985-.9895.646985-1.5696V3.15036c0-.52314-.363235-.78476-.760485-.93257-.238367-.12511-.465367-.26161-.465367-.53454 0-.47767.578867-.58001 1.316702-.875709C2.41776.386728 2.96261 0 3.40524 0c.40862 0 .64699.216061.64699.693817 0 .557313-.20435 2.456633-.20435 5.834523 0 .36395.07948.44359.17025.44359.227 0 1.55506-1.95618 3.91608-1.95618 2.36099 0 3.71169 1.54675 3.71169 4.46975 0 2.0927-.3178 4.0375-.3178 4.7881 0 .4436.1816.8985.5335 1.1601.42.273.7718.3412.7718.7734 0 .3412-.227.5687-.8513.5687l.0001-.0001Z" fill="currentColor"/>
</svg>
