<svg width="400" height="151" viewBox="0 0 400 151" fill="none" xmlns="http://www.w3.org/2000/svg">
    <g clip-path="url(#clip0_724_1306)">
        <path d="M190.35 53.6914V60.7345H178.763V97.1736H170.042V60.7345H158.455V53.6914H190.35Z"
            fill="#1E293B" />
        <path
            d="M195.736 57.0905C194.717 56.1158 194.212 54.8992 194.212 53.4481C194.212 51.997 194.717 50.7804 195.736 49.8056C196.755 48.8309 198.03 48.3398 199.569 48.3398C201.108 48.3398 202.383 48.8309 203.402 49.8056C204.421 50.7804 204.926 51.997 204.926 53.4481C204.926 54.8992 204.421 56.1158 203.402 57.0905C202.383 58.0653 201.108 58.5563 199.569 58.5563C198.03 58.5563 196.755 58.0653 195.736 57.0905ZM203.864 62.6678V97.1795H195.142V62.6678H203.864Z"
            fill="#1E293B" />
        <path d="M219.629 51.0742V97.1729H210.908V51.0742H219.629Z" fill="#1E293B" />
        <path
            d="M258.501 82.5384H233.275C233.48 85.0302 234.352 86.9797 235.891 88.3941C237.43 89.8086 239.321 90.5122 241.564 90.5122C244.803 90.5122 247.104 89.1197 248.482 86.3347H257.885C256.888 89.6547 254.976 92.3884 252.154 94.5284C249.332 96.6685 245.866 97.7385 241.754 97.7385C238.434 97.7385 235.451 97.0056 232.813 95.5252C230.175 94.0521 228.123 91.9633 226.642 89.2663C225.169 86.5693 224.429 83.4545 224.429 79.922C224.429 76.3894 225.154 73.216 226.606 70.519C228.057 67.822 230.094 65.7406 232.71 64.2895C235.327 62.8384 238.339 62.1055 241.747 62.1055C245.155 62.1055 247.969 62.809 250.564 64.2235C253.158 65.638 255.174 67.6388 256.61 70.2332C258.046 72.8276 258.757 75.8105 258.757 79.1744C258.757 80.4203 258.677 81.5416 258.508 82.5384H258.501ZM249.721 76.6826C249.677 74.44 248.871 72.6444 247.295 71.2959C245.719 69.9474 243.784 69.2731 241.505 69.2731C239.343 69.2731 237.526 69.9254 236.052 71.2372C234.579 72.5491 233.678 74.3594 233.341 76.6899H249.721V76.6826Z"
            fill="#1E293B" />
        <path
            d="M276.905 63.6584C278.876 62.6177 281.133 62.1047 283.662 62.1047C286.608 62.1047 289.276 62.8302 291.665 64.2887C294.054 65.7398 295.945 67.8065 297.33 70.4889C298.723 73.1713 299.419 76.2714 299.419 79.8039C299.419 83.3364 298.723 86.4585 297.33 89.1775C295.938 91.8966 294.047 94.0073 291.665 95.5024C289.276 96.9974 286.608 97.745 283.662 97.745C281.089 97.745 278.832 97.2393 276.905 96.2206C274.97 95.2019 273.423 93.8827 272.265 92.263V97.1807H263.544V51.082H272.265V67.7186C273.387 66.0549 274.933 64.7064 276.905 63.6657V63.6584ZM289.239 74.4025C288.389 72.8854 287.268 71.7348 285.875 70.9433C284.483 70.1518 282.98 69.756 281.36 69.756C279.741 69.756 278.297 70.1591 276.905 70.9726C275.512 71.7788 274.391 72.9587 273.541 74.4905C272.69 76.0295 272.265 77.8324 272.265 79.9138C272.265 81.9952 272.69 83.7981 273.541 85.3299C274.391 86.8689 275.512 88.0416 276.905 88.8477C278.297 89.6612 279.777 90.0643 281.36 90.0643C282.944 90.0643 284.483 89.6466 285.875 88.8184C287.268 87.9903 288.389 86.803 289.239 85.2639C290.089 83.7249 290.514 81.9 290.514 79.7819C290.514 77.6639 290.089 75.9123 289.239 74.3952V74.4025Z"
            fill="#1E293B" />
        <path
            d="M310.58 95.5252C307.92 94.0521 305.838 91.9633 304.321 89.2663C302.804 86.5693 302.049 83.4545 302.049 79.922C302.049 76.3894 302.826 73.2747 304.387 70.5776C305.941 67.8806 308.074 65.7919 310.771 64.3188C313.468 62.8457 316.48 62.1055 319.807 62.1055C323.135 62.1055 326.139 62.8457 328.836 64.3188C331.533 65.7919 333.666 67.8806 335.22 70.5776C336.774 73.2747 337.558 76.3894 337.558 79.922C337.558 83.4545 336.759 86.5693 335.161 89.2663C333.564 91.9633 331.402 94.0521 328.683 95.5252C325.964 96.9983 322.922 97.7385 319.558 97.7385C316.194 97.7385 313.248 97.0056 310.588 95.5252H310.58ZM324.007 88.9878C325.399 88.2183 326.506 87.0676 327.341 85.5286C328.169 83.9895 328.587 82.1206 328.587 79.922C328.587 76.6386 327.722 74.1175 326 72.3512C324.278 70.585 322.167 69.7055 319.675 69.7055C317.184 69.7055 315.095 70.5923 313.416 72.3512C311.738 74.1175 310.895 76.6386 310.895 79.922C310.895 83.2053 311.716 85.7264 313.358 87.4927C314.999 89.259 317.066 90.1384 319.558 90.1384C321.134 90.1384 322.622 89.7573 324.014 88.9878H324.007Z"
            fill="#1E293B" />
        <path
            d="M358.357 97.1738L351.256 86.459L344.968 97.1738H335.623L346.895 79.8557L335.499 62.6621H345.341L352.377 73.3183L358.731 62.6621H368.076L356.738 79.8557L368.2 97.1738H358.357Z"
            fill="#1E293B" />
        <path
            d="M126.557 51.1064V99.8508C126.557 104.006 123.75 107.656 119.727 108.726L83.4194 118.415C82.0636 118.774 80.6711 118.957 79.2786 118.957C77.8861 118.957 76.479 118.774 75.1304 118.415L38.8232 108.726C34.807 107.656 32 104.006 32 99.8508V51.1064C32 46.9509 34.807 43.2938 38.8232 42.2238L75.1304 32.5423C76.4863 32.1832 77.8788 32 79.2786 32C80.6784 32 82.0709 32.1832 83.4194 32.5423L119.727 42.2238C123.743 43.2938 126.557 46.9509 126.557 51.1064ZM121.962 99.8508V51.1064C121.962 49.025 120.555 47.2001 118.547 46.6578L82.2395 36.9763C80.3046 36.456 78.2525 36.456 76.3177 36.9763L40.0031 46.6651C37.995 47.2001 36.5952 49.025 36.5952 51.1064V99.8508C36.5952 101.925 37.995 103.75 40.0031 104.292L76.3177 113.981C77.2851 114.237 78.2819 114.369 79.2786 114.369C80.2753 114.369 81.2647 114.237 82.2395 113.981L118.547 104.292C120.555 103.757 121.962 101.925 121.962 99.8508Z"
            fill="#1E293B" />
        <path d="M116.71 51.6119V99.3448L81.905 108.623V42.3262L116.71 51.6119Z" fill="#F43F5E" />
        <path d="M76.6502 96.0625V108.624L41.8454 99.3459V91.416L76.6502 96.0625Z" fill="#1E293B" />
        <path d="M76.6502 78.0977V90.762L41.8454 86.1155V78.0977H76.6502Z" fill="#1E293B" />
        <path d="M76.6502 60.1934V72.843H41.8454V64.8325L76.6502 60.1934Z" fill="#1E293B" />
        <path d="M76.6502 42.3262V54.8952L41.8454 59.527V51.6119L76.6502 42.3262Z" fill="#1E293B" />
        <path
            d="M118.549 46.6576L82.242 36.9762C80.3072 36.4558 78.2551 36.4558 76.3203 36.9762L40.0057 46.665C37.9976 47.2 36.5978 49.0249 36.5978 51.1063V99.8506C36.5978 101.925 37.9976 103.75 40.0057 104.292L76.3203 113.981C77.2877 114.237 78.2845 114.369 79.2812 114.369C80.2779 114.369 81.2673 114.237 82.242 113.981L118.549 104.292C120.557 103.757 121.965 101.925 121.965 99.8506V51.1063C121.965 49.0249 120.557 47.2 118.549 46.6576ZM116.71 99.3449L81.9049 108.623V42.3263L116.71 51.612V99.3449ZM76.6501 78.0985V90.7628L41.8453 86.1236V78.1059H76.6501V78.0985ZM41.8453 72.8437V64.8333L76.6501 60.1941V72.8511H41.8453V72.8437ZM76.6501 96.0543V108.616L41.8453 99.3376V91.4151L76.6501 96.0543ZM76.6501 54.888L41.8453 59.5272V51.6046L76.6501 42.319V54.888Z"
            fill="white" />
    </g>
    <defs>
        <clipPath id="clip0_724_1306">
            <rect width="400" height="150.757" fill="white" />
        </clipPath>
    </defs>
</svg>